HIERARCHY
ROOT Hips
{
	OFFSET 0.000000 88.474243 0.000000
	CHANNELS 6 Xposition Yposition Zposition Zrotation Yrotation Xrotation 
	JOINT Hips_Spine
	{
		OFFSET 0.000000 0.000000 0.000000
		CHANNELS 3 Zrotation Yrotation Xrotation
		JOINT Spine
		{
			OFFSET 0.005100 8.711998 -0.691000
			CHANNELS 3 Zrotation Yrotation Xrotation
			JOINT Spine1
			{
				OFFSET -0.009200 8.660301 -1.275000
				CHANNELS 3 Zrotation Yrotation Xrotation
				JOINT Spine2
				{
					OFFSET 0.006300 9.852501 -1.857000
					CHANNELS 3 Zrotation Yrotation Xrotation
					JOINT Spine2_Neck
					{
						OFFSET 0.000000 0.000000 0.000000
						CHANNELS 3 Zrotation Yrotation Xrotation
						JOINT Neck
						{
							OFFSET 0.016300 11.420799 -0.263300
							CHANNELS 3 Zrotation Yrotation Xrotation
							End Site #name: Head
							{
								OFFSET -0.019200 9.262405 2.362500
							}
						}
					}
					JOINT Spine2_LeftShoulder
					{
						OFFSET 0.000000 0.000000 0.000000
						CHANNELS 3 Zrotation Yrotation Xrotation
						JOINT LeftShoulder
						{
							OFFSET 5.616900 6.732201 -0.345700
							CHANNELS 3 Zrotation Yrotation Xrotation
							JOINT LeftArm
							{
								OFFSET 10.664888 -0.183372 -2.440700
								CHANNELS 3 Zrotation Yrotation Xrotation
								JOINT LeftForeArm
								{
									OFFSET 27.459126 0.000000 0.000000
									CHANNELS 3 Zrotation Yrotation Xrotation
									End Site #name: LeftHand
									{
										OFFSET 21.306858 0.000000 0.000000
									}
								}
							}
						}
					}
					JOINT Spine2_RightShoulder
					{
						OFFSET 0.000000 0.000000 0.000000
						CHANNELS 3 Zrotation Yrotation Xrotation
						JOINT RightShoulder
						{
							OFFSET -5.580300 6.737503 -0.344400
							CHANNELS 3 Zrotation Yrotation Xrotation
							JOINT RightArm
							{
								OFFSET -10.679335 -0.188484 -2.383900
								CHANNELS 3 Zrotation Yrotation Xrotation
								JOINT RightForeArm
								{
									OFFSET -27.503529 0.000000 0.000000
									CHANNELS 3 Zrotation Yrotation Xrotation
									End Site #name: RightHand
									{
										OFFSET -21.306808 0.000000 0.000000
									}
								}
							}
						}
					}
				}
			}
		}
	}
	JOINT Hips_LeftUpLeg
	{
		OFFSET 0.000000 0.000000 0.000000
		CHANNELS 3 Zrotation Yrotation Xrotation
		JOINT LeftUpLeg
		{
			OFFSET 6.857700 -6.739601 0.312100
			CHANNELS 3 Zrotation Yrotation Xrotation
			JOINT LeftLeg
			{
				OFFSET -0.367590 -34.731552 -4.572400
				CHANNELS 3 Zrotation Yrotation Xrotation
				End Site #name: LeftFoot
				{
					OFFSET 0.367590 -34.656704 -6.067400
				}
			}
		}
	}
	JOINT Hips_RightUpLeg
	{
		OFFSET 0.000000 0.000000 0.000000
		CHANNELS 3 Zrotation Yrotation Xrotation
		JOINT RightUpLeg
		{
			OFFSET -6.876100 -6.733299 0.301000
			CHANNELS 3 Zrotation Yrotation Xrotation
			JOINT RightLeg
			{
				OFFSET 0.347353 -34.795158 -4.515900
				CHANNELS 3 Zrotation Yrotation Xrotation
				End Site #name: RightFoot
				{
					OFFSET -0.347353 -34.589367 -6.070300
				}
			}
		}
	}
}
MOTION
Frames: 16
Frame Time: 0.041667
2.368402 -0.459337 -3.284242 176.808773 29.297856 -177.955256 0.000000 -0.000000 0.000000 0.616558 -3.042068 4.457140 0.360805 -1.895410 3.686099 0.000000 0.000000 0.000000 1.119925 -1.858506 4.283316 -0.333923 -29.814175 1.210650 0.108687 -1.532400 1.585521 0.732317 -3.404924 -0.698886 -84.257139 -21.039605 10.672583 5.036839 -18.091210 3.025441 0.290273 -2.709498 2.876295 17.669503 13.855475 3.748547 53.834295 17.026085 -0.859661 2.126877 56.572372 5.661060 0.000000 0.000000 -0.000000 -1.064814 15.797204 -6.118197 0.233692 -34.337747 -14.412210 0.000000 0.000000 -0.000000 -4.410041 -47.043521 -10.365127 -15.267553 -9.715419 19.893080 
2.365301 -0.443560 -3.383152 176.774004 30.286372 -178.044604 0.000000 -0.000000 0.000000 0.598294 -2.997634 4.490339 0.304561 -1.859244 3.593481 0.000000 0.000000 0.000000 1.087571 -1.836537 4.215721 -0.590406 -29.359613 1.168134 0.077896 -1.506743 1.543631 0.676248 -3.576294 -0.673051 -83.956187 -21.420944 11.085356 5.144945 -18.064037 3.130403 0.264377 -2.670267 2.791600 17.643993 13.872780 3.743716 53.689992 17.028501 -0.877357 1.596322 56.008830 5.296872 0.000000 0.000000 -0.000000 -1.086630 15.618926 -6.151270 0.261733 -34.156199 -14.521098 0.000000 0.000000 -0.000000 -4.358888 -46.224307 -10.381071 -15.061657 -9.830177 19.782824 
2.362396 -0.425890 -3.479777 176.727255 31.291556 -178.122686 0.000000 -0.000000 0.000000 0.576270 -2.963668 4.541952 0.236316 -1.822073 3.504059 0.000000 0.000000 0.000000 1.041999 -1.811965 4.124069 -0.803338 -28.790326 1.039558 0.041148 -1.476800 1.501804 0.609685 -3.751330 -0.640783 -83.618669 -21.801887 11.490118 5.279840 -18.180025 3.249886 0.232211 -2.627860 2.702794 17.572908 13.890082 3.731731 53.563292 17.022440 -0.805175 0.851489 55.624557 4.765250 0.000000 0.000000 -0.000000 -1.097320 15.444039 -6.223357 0.267618 -34.005717 -14.574029 0.000000 -0.000000 -0.000000 -4.298514 -45.342228 -10.380932 -14.811312 -9.927367 19.608035 
2.360366 -0.406845 -3.575182 176.680283 32.269006 -178.182877 0.000000 -0.000000 0.000000 0.560888 -2.934689 4.608046 0.157949 -1.782988 3.420453 0.000000 0.000000 0.000000 0.988253 -1.781720 4.038663 -0.962204 -28.109833 0.804745 -0.003147 -1.440704 1.466916 0.541382 -3.937064 -0.600965 -83.262001 -22.191993 11.852818 5.425936 -18.442094 3.364416 0.192696 -2.583334 2.616483 17.463459 13.947610 3.719962 53.434585 17.022329 -0.658484 -0.107567 55.438897 4.078654 0.000000 0.000000 -0.000000 -1.104202 15.272973 -6.372568 0.239506 -33.874317 -14.519355 0.000000 -0.000000 -0.000000 -4.196084 -44.428596 -10.385294 -14.515279 -9.962921 19.394237 
2.359302 -0.386768 -3.670755 176.634642 33.088115 -178.224727 0.000000 -0.000000 0.000000 0.560962 -2.896355 4.685280 0.072995 -1.742039 3.349724 0.000000 0.000000 0.000000 0.929637 -1.750555 3.965147 -1.092656 -27.365092 0.496184 -0.051507 -1.402364 1.444564 0.471486 -4.143566 -0.549286 -82.880925 -22.575194 12.136695 5.580445 -18.872906 3.467866 0.148891 -2.538074 2.539094 17.332505 14.040140 3.711856 53.300377 17.016469 -0.506722 -0.896743 55.404352 3.488066 0.000000 0.000000 -0.000000 -1.107616 15.117254 -6.592357 0.179626 -33.723780 -14.348727 0.000000 -0.000000 -0.000000 -4.064529 -43.602958 -10.402193 -14.213572 -9.888354 19.183440 
2.360066 -0.365820 -3.766066 176.585205 33.704834 -178.253563 0.000000 -0.000000 0.000000 0.563609 -2.882359 4.750608 -0.015437 -1.701401 3.293243 0.000000 0.000000 0.000000 0.869776 -1.720124 3.906148 -1.143392 -26.569617 0.128268 -0.101506 -1.364390 1.433944 0.401859 -4.370666 -0.486923 -82.469731 -22.924231 12.349570 5.756537 -19.445926 3.587814 0.103376 -2.497994 2.476491 17.194862 14.150387 3.699731 53.174868 17.004156 -0.376684 -1.191274 55.483090 3.206330 0.000000 0.000000 -0.000000 -1.104736 14.979198 -6.886093 0.081838 -33.520382 -14.039600 0.000000 -0.000000 -0.000000 -3.901703 -42.918295 -10.456123 -13.879622 -9.645647 18.992822 
2.363580 -0.344233 -3.860861 176.517657 34.073165 -178.275779 0.000000 -0.000000 0.000000 0.566704 -2.887987 4.844062 -0.102684 -1.664329 3.255598 0.000000 0.000000 0.000000 0.806148 -1.691473 3.862238 -1.141799 -25.725869 -0.233800 -0.152858 -1.326589 1.431837 0.314816 -4.632942 -0.398500 -82.015583 -23.268551 12.508040 5.920747 -20.154702 3.713756 0.059145 -2.463919 2.429038 17.077145 14.280553 3.693417 53.047031 16.988807 -0.333466 -1.495773 55.714804 2.910179 0.000000 0.000000 -0.000000 -1.105082 14.863355 -7.254215 -0.048659 -33.281266 -13.614122 0.000000 -0.000000 -0.000000 -3.716695 -42.415833 -10.532740 -13.539563 -9.211414 18.826058 
2.371475 -0.322026 -3.954071 176.415191 34.159293 -178.304903 0.000000 -0.000000 0.000000 0.533476 -2.921837 4.991292 -0.191272 -1.636614 3.233271 0.000000 0.000000 0.000000 0.742312 -1.666003 3.841099 -1.112908 -24.858486 -0.605151 -0.204738 -1.292302 1.438865 0.213735 -4.915053 -0.303570 -81.504011 -23.590417 12.638078 6.095013 -20.982628 3.848332 0.013300 -2.438233 2.390148 17.000838 14.439879 3.693312 52.917237 16.979541 -0.412820 -1.811938 56.064655 2.602702 0.000000 0.000000 -0.000000 -1.111312 14.757053 -7.693600 -0.211078 -33.022869 -13.090284 0.000000 -0.000000 -0.000000 -3.535357 -42.078728 -10.653769 -13.186778 -8.634484 18.714601 
2.385016 -0.299715 -4.044577 176.294984 33.922816 -178.333428 0.000000 -0.000000 0.000000 0.417024 -3.001135 5.193466 -0.285878 -1.618632 3.223893 0.000000 0.000000 0.000000 0.671114 -1.645382 3.837087 -1.077350 -24.042084 -1.009909 -0.261598 -1.268039 1.448837 0.104360 -5.235844 -0.190071 -80.939348 -23.931166 12.696146 6.264626 -21.910703 3.971827 -0.039405 -2.421368 2.353571 16.969081 14.625403 3.702297 52.777856 16.982277 -0.565964 -2.185580 56.584504 2.223987 0.000000 0.000000 -0.000000 -1.126768 14.657788 -8.208729 -0.406407 -32.747560 -12.465842 0.000000 -0.000000 -0.000000 -3.382956 -41.830094 -10.794639 -12.841002 -8.017862 18.633802 
2.406551 -0.276809 -4.131056 176.156079 33.361680 -178.367848 0.000000 -0.000000 0.000000 0.183005 -3.134229 5.454330 -0.386052 -1.612044 3.214730 0.000000 0.000000 0.000000 0.594952 -1.627099 3.837784 -1.026531 -23.259107 -1.458527 -0.322838 -1.250370 1.457716 0.002198 -5.592602 -0.065824 -80.326291 -24.253412 12.637775 6.410759 -22.859960 4.083411 -0.100307 -2.407782 2.312687 16.966046 14.789157 3.770581 52.636871 17.001535 -0.731683 -2.671824 57.515965 1.596923 0.000000 0.000000 -0.000000 -1.144056 14.560236 -8.764233 -0.632978 -32.451773 -11.758368 0.000000 -0.000000 -0.000000 -3.268852 -41.535229 -10.953059 -12.484710 -7.435698 18.578262 
2.437899 -0.252594 -4.213218 176.004070 32.688368 -178.394774 0.000000 -0.000000 0.000000 -0.183506 -3.287572 5.765453 -0.492769 -1.612096 3.204315 0.000000 0.000000 0.000000 0.512907 -1.606840 3.836624 -0.963897 -22.472141 -1.948682 -0.385119 -1.232353 1.467200 -0.084442 -6.000836 0.072445 -79.700172 -24.536267 12.476068 6.491508 -23.762886 4.145229 -0.173436 -2.393428 2.268972 16.982842 14.962080 3.836873 52.500669 17.071549 -0.884946 -3.096457 58.975990 1.194728 0.000000 0.000000 -0.000000 -1.162227 14.467351 -9.364515 -0.894298 -32.089328 -10.942780 0.000000 -0.000000 -0.000000 -3.185032 -41.095903 -11.147237 -12.075442 -6.914622 18.532187 
2.481933 -0.226756 -4.290504 175.842807 31.982199 -178.416617 0.000000 -0.000000 0.000000 -0.670449 -3.453943 6.126873 -0.607355 -1.612573 3.192733 0.000000 0.000000 0.000000 0.421954 -1.581752 3.829000 -0.860658 -21.643694 -2.527232 -0.450449 -1.212779 1.472858 -0.143725 -6.449943 0.217261 -79.104823 -24.772117 12.232552 6.496495 -24.544739 4.141765 -0.258155 -2.377486 2.214886 17.003620 15.140866 3.897851 52.404492 17.164791 -0.959205 -3.487193 60.873374 0.842897 0.000000 0.000000 -0.000000 -1.181754 14.390434 -9.999571 -1.177069 -31.657145 -10.048483 0.000000 -0.000000 -0.000000 -3.148194 -40.600120 -11.389486 -11.640705 -6.556681 18.477181 
2.540345 -0.199718 -4.363652 175.681490 31.339271 -178.431702 0.000000 -0.000000 0.000000 -1.281571 -3.624388 6.498603 -0.717252 -1.605063 3.182248 0.000000 0.000000 0.000000 0.314891 -1.550675 3.808974 -0.780576 -20.732189 -3.161394 -0.525044 -1.192550 1.472076 -0.172129 -6.927490 0.362484 -78.545503 -24.952154 11.954360 6.399507 -25.213107 4.074369 -0.355317 -2.358013 2.152575 17.007625 15.330774 3.943870 52.336071 17.291512 -0.940176 -3.983767 63.120022 0.377986 0.000000 0.000000 -0.000000 -1.215701 14.312898 -10.691780 -1.483343 -31.153872 -9.035427 0.000000 -0.000000 -0.000000 -3.141659 -40.046480 -11.681869 -11.173918 -6.290904 18.406291 
2.614139 -0.172118 -4.433355 175.526695 30.686175 -178.445435 0.000000 -0.000000 0.000000 -1.964052 -3.767976 6.867965 -0.839882 -1.599120 3.170286 0.000000 0.000000 0.000000 0.191061 -1.519719 3.769835 -0.689278 -19.709916 -3.848583 -0.606966 -1.169394 1.465920 -0.186670 -7.413196 0.512985 -78.008857 -25.107551 11.631955 6.238358 -25.834686 3.958903 -0.468641 -2.333897 2.077129 17.024119 15.500746 3.979121 52.292504 17.459579 -0.947934 -4.609216 65.797691 -0.226618 0.000000 0.000000 -0.000000 -1.266007 14.257040 -11.382302 -1.779890 -30.657804 -8.000458 0.000000 -0.000000 -0.000000 -3.145825 -39.415653 -11.991764 -10.665458 -6.061265 18.306122 
2.704725 -0.145332 -4.498924 175.381697 29.859211 -178.467538 0.000000 -0.000000 0.000000 -2.682918 -3.886276 7.233301 -0.970254 -1.596286 3.152246 0.000000 0.000000 0.000000 0.048740 -1.487328 3.718948 -0.612530 -18.754995 -4.357975 -0.696249 -1.146415 1.454854 -0.208102 -7.863623 0.666796 -77.478805 -25.223924 11.287148 6.022921 -26.450034 3.793000 -0.646066 -2.304110 1.985600 17.058830 15.649745 3.992802 52.334330 17.535528 -1.145319 -5.378214 68.448589 -0.982143 0.000000 0.000000 -0.000000 -1.333418 14.252195 -11.984148 -2.039466 -30.177092 -7.067247 0.000000 -0.000000 -0.000000 -3.164762 -38.862718 -12.286511 -10.150886 -5.851541 18.161853 
2.812368 -0.121512 -4.561765 175.269245 28.727744 -178.491368 0.000000 -0.000000 0.000000 -3.400990 -4.005572 7.608678 -1.109855 -1.595784 3.127353 0.000000 0.000000 0.000000 -0.130342 -1.451254 3.657723 -0.573168 -17.804317 -4.820225 -0.791641 -1.124403 1.435837 -0.236417 -8.256260 0.816474 -76.931715 -25.315587 10.913941 5.769331 -27.106288 3.560735 -0.859852 -2.275831 1.880309 17.136408 15.769403 3.976906 52.470814 17.622749 -1.497236 -6.207789 71.052151 -1.827571 0.000000 0.000000 -0.000000 -1.413933 14.320876 -12.479813 -2.256049 -29.714385 -6.267293 0.000000 -0.000000 -0.000000 -3.209763 -38.548742 -12.551644 -9.657312 -5.622690 18.010696 
